<svg xmlns="http://www.w3.org/2000/svg" xmlns:xlink="http://www.w3.org/1999/xlink" version="1.1" x="0px" y="0px" viewBox="0 0 91 91" style="enable-background:new 0 0 91 91;" xml:space="preserve"><g><rect x="21.6" y="35.1" width="6.5" height="23.3"></rect><path d="M31.7,58.1l14.5,10.1c0.3,0.2,0.6,0.3,1,0.3c0.3,0,0.5-0.1,0.8-0.2c0.6-0.3,0.9-0.9,0.9-1.5V26.7c0-0.6-0.4-1.2-0.9-1.5   c-0.6-0.3-1.2-0.2-1.7,0.1L31.7,35.4c-0.5,0.3-0.7,0.8-0.7,1.4v20C31,57.3,31.3,57.8,31.7,58.1z"></path><polygon points="71.5,35.5 62.9,44.1 54.2,35.5 51.6,38.1 60.2,46.8 51.6,55.4 54.2,58.1 62.9,49.4 71.5,58.1 74.2,55.4 65.5,46.8    74.2,38.1  "></polygon></g></svg>